PathFileType	4	(X/Y/Z)	Patient4_TMGait_0pt8_01_left_06.trc.trc
DataRate	CameraRate	NumFrames	NumMarkers	Units	OrigDataRate	OrigDataStartFrame	OrigNumFrames
89.171974522293	89.171974522293	4	33	mm	89.171974522293	53	       141
Frame#	Time	Sacral			L.Shoulder			Chest			R.Shoulder			Neck			R.ASIS			L.ASIS			R.Thigh.Superior			R.Thigh.Lateral			R.Thigh.Inferior			R.Patella			L.Thigh.Superior			L.Thigh.Lateral			L.Thigh.Inferior			L.Patella			L.Shank.Superior			L.Shank.Lateral			L.Shank.Inferior			R.Shank.Superior			R.Shank.Lateral			R.Shank.Inferior			R.Heel			R.Midfoot.Superior			R.Midfoot.Lateral			R.Toe			L.Heel			L.Midfoot.Lateral			L.Midfoot.Superior			L.Toe			L.Elbow			L.Wrist			R.Elbow			R.Wrist			
		X1	Y1	Z1	X2	Y2	Z2	X3	Y3	Z3	X4	Y4	Z4	X5	Y5	Z5	X6	Y6	Z6	X7	Y7	Z7	X8	Y8	Z8	X9	Y9	Z9	X10	Y10	Z10	X11	Y11	Z11	X12	Y12	Z12	X13	Y13	Z13	X14	Y14	Z14	X15	Y15	Z15	X16	Y16	Z16	X17	Y17	Z17	X18	Y18	Z18	X19	Y19	Z19	X20	Y20	Z20	X21	Y21	Z21	X22	Y22	Z22	X23	Y23	Z23	X24	Y24	Z24	X25	Y25	Z25	X26	Y26	Z26	X27	Y27	Z27	X28	Y28	Z28	X29	Y29	Z29	X30	Y30	Z30	X31	Y31	Z31	X32	Y32	Z32	X33	Y33	Z33	

53	6.453142857143	833.730131176337	1012.955490710352	460.071404756183	1022.116526673145	1437.036664846158	279.302074432458	1117.163851832994	1371.881733227170	446.405934881089	1025.231028544394	1446.714492241859	616.112339066826	1000.276041174832	1500.469706434220	435.087063529916	1057.249068894950	948.247964157799	582.270965210622	1052.744502817645	966.724096015414	309.155768185400	1141.398785445353	778.936560752529	554.405464806637	1101.618041717682	657.758000690787	628.548681042914	1193.796031265786	618.841279173057	552.560987560358	1210.809974695134	503.281002664198	575.165579810076	1095.863995911868	753.813715061049	337.171776484629	1003.475372455802	640.308056223884	277.639955615261	1084.748837374758	560.680177356323	342.271577862820	1082.753587860456	492.771164547574	352.532919969028	1058.977651614998	421.961071386426	343.946099635284	972.461762823898	304.715435535455	296.286817471455	1028.900058780598	195.816403140665	367.003188613333	1129.237637807742	431.290739582684	579.617468378964	1003.139699627257	403.783984947709	638.214033212456	979.198895618689	297.161220064872	588.297290592154	773.079142868679	252.282774457988	557.068484941736	937.064264733389	183.370390057923	600.033703697178	826.696301624999	189.219630611999	631.175214300394	993.064860881775	67.080916965510	627.523667142083	905.183839307989	38.373627355666	414.113849217187	975.683134944454	35.967866940906	330.252167050359	1060.025797219542	96.975650440812	354.474751544733	1186.986944525248	45.662896151783	320.293815708692	1015.215220979623	1085.406872788779	156.036277632086	1115.464018085488	844.247940507627	169.440795685522	990.658295793963	1097.891085375829	729.256217801499	1180.280168895690	923.206831282522	701.164970671496	
54	6.464357142857	832.164493919109	1012.942976598115	458.768113861623	1022.815030446117	1437.814590654057	279.799611106640	1116.203914776277	1371.983341090386	447.533102070526	1022.899551299613	1446.167529804815	616.707649894229	999.753126711292	1500.743223823444	435.737802514714	1055.286479034287	949.468227181926	582.424653197808	1052.037961521808	967.069375287170	309.231082153236	1142.452831584889	783.396047812836	554.128622253515	1105.772422988300	661.580163185929	628.940266855410	1198.496004502486	624.488340506420	552.730343448297	1218.552482933680	509.743314982298	575.623639270902	1092.966405889446	752.980443877300	338.131065642983	999.572919253294	640.331344205808	277.425378820287	1079.253187538975	559.779267967541	342.682562745244	1076.260405032940	491.979238183147	353.037342765639	1052.311817329147	421.414684284884	344.224868083982	965.248879762060	304.689819048248	296.306631485346	1020.749355867187	195.541527715437	367.298999078221	1139.613509294106	435.334577155917	580.660567565079	1015.224076460249	402.670542140805	639.905851395293	995.331175579164	295.005062826093	590.214886861812	791.177449848209	241.997902244905	559.960812523619	957.851677541540	179.485998737995	602.791737264464	847.338025414560	181.217130238504	634.165535910021	1018.093951856895	65.225939140897	630.151079256046	896.080326282925	38.310880090025	414.122080245432	966.620685721132	35.941514864404	330.261462363405	1050.969906363174	96.959784854007	354.575693888223	1177.919846935604	45.724503840089	320.320552930599	1025.588247240061	1087.550820175929	152.896355091891	1137.074920435176	851.315942382359	167.021520231652	982.050156163677	1097.091941948283	728.194096669485	1156.501234787835	905.529844831525	706.645778393609	
55	6.475571428571	830.638313664319	1012.756193299159	457.543918860926	1023.541828607275	1438.495246159597	280.441984216216	1115.285871816795	1371.927617674859	448.759271220985	1020.652928811742	1445.465766427373	617.413677278989	999.268542699813	1500.878165047799	436.530385483972	1053.352550249030	950.495245860282	582.657366598591	1051.338676926068	967.279214312445	309.357896108612	1143.220159949441	787.460764399362	554.115590798998	1109.297515376446	665.111162235508	629.458099423842	1202.452540876741	629.638011728551	553.040293515675	1225.397887118083	515.972807071695	576.258686103751	1090.076294681033	752.081181906178	339.111055658835	995.767139234659	640.278091982178	277.218657520556	1073.825341341963	558.832424711016	343.104088871446	1069.857721892586	491.153463028501	353.520709556147	1045.721167374588	420.806690748685	344.493990524538	958.094447660415	304.621920361027	296.315767615995	1012.605941394284	195.222824258336	367.583489070886	1149.449478650424	439.079282584191	581.868350374718	1027.205295121914	400.761509934358	641.837802666508	1011.913065593581	292.149295711356	592.381944526837	810.346649875546	230.262203098712	563.147594878368	979.725988013975	174.833949231023	605.866015980158	869.198937804805	172.002534712899	637.430613984104	1044.547213322422	62.870279760623	633.011118039867	886.975415327273	38.234621686407	414.133441125409	957.556412788161	35.907227742086	330.272645255210	1041.903622444423	96.938705113801	354.687647202360	1168.851703833013	45.795463331561	320.357504915809	1035.622097519492	1089.977650697583	149.928006381611	1158.331181285262	859.338338916959	165.037290734767	973.870583084192	1096.136859706779	727.102416669770	1131.611587040888	889.415912617928	712.197676437904	
56	6.486785714286	829.159875665042	1012.429192840888	456.396070839619	1024.311529300275	1439.080822313540	281.235001920971	1114.433409711090	1371.718917549088	450.085764418954	1018.517228544318	1444.618079861089	618.235974329617	998.840749132728	1500.878728643592	437.466244970461	1051.447104022298	951.291127225573	582.951733822378	1050.659451720295	967.355632176658	309.525832371636	1143.684549066575	791.057328787517	554.328966114954	1112.161714223616	668.284862893076	630.103177844500	1205.621651120946	634.191107175466	553.489992475242	1231.283592779110	521.876998498123	577.092547967746	1087.198743655559	751.112630884668	340.093134592151	992.048194382094	640.155662656010	277.018707529248	1068.446707075271	557.838950475731	343.530615995803	1063.526478286700	490.297594268669	353.976623884376	1039.185236677995	420.145257795142	344.747530538125	950.985284203572	304.515347062110	296.306155845968	1004.457796862721	194.865155313108	367.855474383519	1158.676056068561	442.500564221808	583.251079280287	1039.060792456239	398.138365373309	643.992290996243	1028.900920522026	288.753408618215	594.776940688411	830.642806012466	217.375355823853	566.560049104452	1002.611416131192	169.632121560118	609.167964990171	892.270030165166	161.850324907009	640.880190206476	1072.278715381814	60.305784903719	636.021830565963	877.874182758626	38.148544172907	414.144586147980	948.492231712505	35.866057054893	330.284039911433	1032.830042063488	96.912628651449	354.808990099574	1159.784588683674	45.872559292635	320.402675166176	1045.233108842058	1092.646661049310	147.151813658803	1179.106781484491	868.300280209540	163.502691369472	966.032013403784	1095.079405042762	726.006976444630	1105.849275390573	875.107375652836	717.741259618488	
